<!-- Generated by IcoMoon.io -->
<svg version="1.1" xmlns="http://www.w3.org/2000/svg" width="32" height="32" viewBox="0 0 32 32" fill="currentColor">
<path d="M9.627 1.389c-1.431 0.057-2.229 0.255-3.072 0.759-1.219 0.741-2.089 1.952-2.363 3.375l-0.005 0.032c-0.152 0.787-0.183 2.528-0.183 10.419 0 8.12 0.031 9.752 0.201 10.561 0.411 1.981 1.946 3.515 3.894 3.921l0.033 0.006c0.76 0.16 2.377 0.201 7.868 0.201s7.108-0.041 7.868-0.201c1.981-0.411 3.515-1.946 3.921-3.894l0.006-0.033c0.171-0.809 0.201-2.44 0.201-10.535s-0.031-9.725-0.201-10.535c-0.354-1.685-1.509-3.039-3.040-3.665l-0.034-0.012c-0.628-0.249-1.228-0.347-2.508-0.4-1.348-0.059-11.148-0.056-12.587 0.001zM22.987 4.055c0.22 0.028 0.523 0.089 0.672 0.136 0.576 0.18 1.304 0.909 1.484 1.485 0.047 0.149 0.108 0.451 0.136 0.671 0.069 0.539 0.069 18.768 0 19.307-0.034 0.257-0.081 0.485-0.144 0.706l0.008-0.034c-0.18 0.576-0.909 1.304-1.485 1.484-0.187 0.055-0.414 0.102-0.646 0.133l-0.025 0.003c-0.535 0.068-13.439 0.068-13.973 0-0.257-0.034-0.485-0.081-0.706-0.144l0.034 0.008c-0.576-0.18-1.304-0.909-1.484-1.485-0.055-0.187-0.102-0.414-0.133-0.646l-0.003-0.025c-0.073-0.568-0.072-18.717 0.001-19.3 0.073-0.591 0.176-0.875 0.459-1.272 0.413-0.581 1.007-0.923 1.779-1.023 0.495-0.064 13.532-0.068 14.027-0.004zM10.341 8.053c-0.66 0.113-0.968 0.521-0.968 1.28 0 0.645 0.221 1.027 0.703 1.212 0.228 0.088 0.62 0.095 5.924 0.095s5.696-0.007 5.924-0.095c0.483-0.185 0.703-0.567 0.703-1.215 0.001-0.632-0.203-0.992-0.681-1.208-0.199-0.091-0.545-0.096-5.785-0.104-3.065-0.004-5.684 0.011-5.819 0.035zM10.341 13.387c-0.66 0.115-0.968 0.521-0.968 1.28 0 0.645 0.221 1.027 0.703 1.212 0.227 0.088 0.563 0.095 4.591 0.095s4.364-0.007 4.591-0.095c0.481-0.185 0.703-0.567 0.703-1.212 0-0.629-0.189-0.976-0.653-1.193-0.237-0.112-0.284-0.113-4.48-0.121-2.332-0.004-4.351 0.011-4.485 0.035zM10.341 18.719c-0.663 0.117-0.968 0.523-0.968 1.281 0 0.645 0.221 1.027 0.703 1.212 0.215 0.084 0.445 0.095 1.924 0.095 1.848 0 2.011-0.024 2.308-0.335 0.444-0.464 0.432-1.553-0.021-1.969-0.313-0.287-0.433-0.305-2.127-0.317-0.865-0.005-1.684 0.009-1.819 0.033z"></path>
</svg>
